<?xml version="1.0" encoding="UTF-8"?>
<svg id="Livello_1" xmlns="http://www.w3.org/2000/svg" version="1.1" viewBox="0 0 32 32">
  <!-- Generator: Adobe Illustrator 29.3.1, SVG Export Plug-In . SVG Version: 2.1.0 Build 151)  -->
  <defs>
    <style>
      .st0 {
        fill: #393939;
        isolation: isolate;
        opacity: .4;
      }

      .st1 {
        fill: #c1d11e;
        fill-rule: evenodd;
      }
    </style>
  </defs>
  <path class="st0" d="M16,29.3c-1,0-2-.4-2.8-1.2l-1-1c-.4-.4-.9-.6-1.4-.6h-1.4c-2.2,0-4-1.8-4-4v-1.4c0-.5-.2-1-.6-1.4l-1-1c-1.6-1.6-1.6-4.1,0-5.7l1-1c.4-.4.6-.9.6-1.4v-1.4c0-2.2,1.8-4,4-4h1.4c.5,0,1-.2,1.4-.6l1-1c1.6-1.6,4.1-1.6,5.7,0l1,1c.4.4.9.6,1.4.6h1.4c2.2,0,4,1.8,4,4v1.4c0,.5.2,1,.6,1.4l1,1c.8.8,1.2,1.8,1.2,2.8,0,1.1-.4,2.1-1.2,2.8,0,0,0,0,0,0l-.9.9c-.4.4-.6.9-.6,1.4v1.4c0,2.2-1.8,4-4,4h-1.4c-.5,0-1,.2-1.4.6l-1,1c-.8.8-1.8,1.2-2.8,1.2"/>
  <path class="st1" d="M13.4,13.4c-.2.2-.5.3-.8.3s-.6-.1-.8-.3c-.2-.2-.3-.5-.3-.8s.1-.6.3-.8c.1-.1.3-.2.4-.3.4-.2.9,0,1.3.3.1.1.2.2.3.4,0,.1,0,.3,0,.5,0,.3-.1.6-.4.8ZM20.3,11.7c-.5-.5-1.2-.5-1.6,0l-6.9,6.9c-.5.5-.5,1.2,0,1.7.2.2.5.3.8.3s.6-.1.8-.3l6.9-6.9c.5-.5.5-1.2,0-1.7ZM19.9,18.4c-.4-.2-.9,0-1.3.3,0,0-.2.2-.2.4,0,.2,0,.3,0,.5s0,.3,0,.5c0,.1.1.3.3.4.2.2.5.3.8.3s.6-.1.8-.3c.2-.2.3-.5.3-.8s-.1-.6-.3-.8c-.1-.1-.3-.2-.4-.2Z"/>
</svg>